<svg width="563" height="14" viewBox="0 0 563 14" fill="none" xmlns="http://www.w3.org/2000/svg">
<path d="M562.423 14L544.423 14L544.423 6C544.423 2.68629 547.11 5.30278e-07 550.423 8.2826e-07L556.423 1.3678e-06C559.737 1.66579e-06 562.423 2.68629 562.423 6L562.423 14Z" fill="#7C7C7C"/>
<path d="M272.064 14L254.064 14L254.064 6C254.064 2.68629 256.751 5.30278e-07 260.064 8.2826e-07L266.064 1.3678e-06C269.378 1.66579e-06 272.064 2.68629 272.064 6L272.064 14Z" fill="#7C7C7C"/>
<path d="M417.244 14L399.244 14L399.244 6C399.244 2.68629 401.93 5.30278e-07 405.244 8.2826e-07L411.244 1.3678e-06C414.558 1.66579e-06 417.244 2.68629 417.244 6L417.244 14Z" fill="#7C7C7C"/>
<path d="M126.885 14L108.885 14L108.885 6C108.885 2.68629 111.571 5.30278e-07 114.885 8.2826e-07L120.885 1.3678e-06C124.198 1.66579e-06 126.885 2.68629 126.885 6L126.885 14Z" fill="#7C7C7C"/>
<path d="M489.834 14L471.834 14L471.834 6C471.834 2.68629 474.52 5.30278e-07 477.834 8.2826e-07L483.834 1.3678e-06C487.147 1.66579e-06 489.834 2.68629 489.834 6L489.834 14Z" fill="#7C7C7C"/>
<path d="M199.474 14L181.474 14L181.474 6C181.474 2.68629 184.161 5.30278e-07 187.474 8.2826e-07L193.474 1.3678e-06C196.788 1.66579e-06 199.474 2.68629 199.474 6L199.474 14Z" fill="#7C7C7C"/>
<path d="M344.654 14L326.654 14L326.654 6C326.654 2.68629 329.34 5.30278e-07 332.654 8.2826e-07L338.654 1.3678e-06C341.968 1.66579e-06 344.654 2.68629 344.654 6L344.654 14Z" fill="#7C7C7C"/>
<path d="M54.2949 14L36.2949 14L36.2949 6C36.2949 2.68629 38.9812 5.30278e-07 42.2949 8.2826e-07L48.2949 1.3678e-06C51.6086 1.66579e-06 54.2949 2.68629 54.2949 6L54.2949 14Z" fill="#7C7C7C"/>
<path d="M526.129 14L508.129 14L508.129 6C508.129 2.68629 510.815 5.30278e-07 514.129 8.2826e-07L520.129 1.3678e-06C523.442 1.66579e-06 526.129 2.68629 526.129 6L526.129 14Z" fill="#7C7C7C"/>
<path d="M235.769 14L217.769 14L217.769 6C217.769 2.68629 220.456 5.30278e-07 223.769 8.2826e-07L229.769 1.3678e-06C233.083 1.66579e-06 235.769 2.68629 235.769 6L235.769 14Z" fill="#7C7C7C"/>
<path d="M380.949 14L362.949 14L362.949 6C362.949 2.68629 365.635 5.30278e-07 368.949 8.2826e-07L374.949 1.3678e-06C378.263 1.66579e-06 380.949 2.68629 380.949 6L380.949 14Z" fill="#7C7C7C"/>
<path d="M90.5898 14L72.5898 14L72.5898 6C72.5898 2.68629 75.2761 5.30278e-07 78.5898 8.2826e-07L84.5898 1.3678e-06C87.9035 1.66579e-06 90.5898 2.68629 90.5898 6L90.5898 14Z" fill="#7C7C7C"/>
<path d="M453.539 14L435.539 14L435.539 6C435.539 2.68629 438.225 5.30278e-07 441.539 8.2826e-07L447.539 1.3678e-06C450.852 1.66579e-06 453.539 2.68629 453.539 6L453.539 14Z" fill="#7C7C7C"/>
<path d="M163.18 14L145.18 14L145.18 6C145.18 2.68629 147.866 5.30278e-07 151.18 8.2826e-07L157.18 1.3678e-06C160.493 1.66579e-06 163.18 2.68629 163.18 6L163.18 14Z" fill="#7C7C7C"/>
<path d="M308.359 14L290.359 14L290.359 6C290.359 2.68629 293.045 5.30278e-07 296.359 8.2826e-07L302.359 1.3678e-06C305.673 1.66579e-06 308.359 2.68629 308.359 6L308.359 14Z" fill="#7C7C7C"/>
<path d="M18 14L0 14L6.79929e-07 6C9.61564e-07 2.68629 2.68629 5.30278e-07 6 8.2826e-07L12 1.3678e-06C15.3137 1.66579e-06 18 2.68629 18 6L18 14Z" fill="#7C7C7C"/>
</svg>
