<svg width="144" height="144" viewBox="0 0 144 144" fill="none" xmlns="http://www.w3.org/2000/svg">
<path fill-rule="evenodd" clip-rule="evenodd" d="M50 12C48.3431 12 47 13.3431 47 15V130C47 131.657 48.3431 133 50 133H95C96.6569 133 98 131.657 98 130V15C98 13.3431 96.6569 12 95 12H50ZM72.5 25.5C67.4596 25.5 63.5 21.6263 63.5 17H60.5C60.5 23.4194 65.9424 28.5 72.5 28.5C79.0576 28.5 84.5 23.4194 84.5 17H81.5C81.5 21.6263 77.5404 25.5 72.5 25.5Z" fill="#242424"/>
<path d="M33 23C33 20.7909 34.7909 19 37 19H43V34H37C34.7909 34 33 32.2091 33 30V23Z" fill="#242424"/>
<path d="M112 122C112 124.209 110.209 126 108 126L102 126L102 111L108 111C110.209 111 112 112.791 112 115L112 122Z" fill="#242424"/>
<path d="M33 46C33 43.7909 34.7909 42 37 42H43V57H37C34.7909 57 33 55.2091 33 53V46Z" fill="#242424"/>
<path d="M112 99C112 101.209 110.209 103 108 103L102 103L102 88L108 88C110.209 88 112 89.7909 112 92L112 99Z" fill="#242424"/>
<path d="M33 69C33 66.7909 34.7909 65 37 65H43V80H37C34.7909 80 33 78.2091 33 76V69Z" fill="#242424"/>
<path d="M112 76C112 78.2091 110.209 80 108 80L102 80L102 65L108 65C110.209 65 112 66.7909 112 69L112 76Z" fill="#242424"/>
<path d="M33 92C33 89.7909 34.7909 88 37 88H43V103H37C34.7909 103 33 101.209 33 99V92Z" fill="#242424"/>
<path d="M112 53C112 55.2091 110.209 57 108 57L102 57L102 42L108 42C110.209 42 112 43.7909 112 46L112 53Z" fill="#242424"/>
<path d="M33 115C33 112.791 34.7909 111 37 111H43V126H37C34.7909 126 33 124.209 33 122V115Z" fill="#242424"/>
<path d="M112 30C112 32.2091 110.209 34 108 34L102 34L102 19L108 19C110.209 19 112 20.7909 112 23L112 30Z" fill="#242424"/>
</svg>
