<svg width="116" height="116" viewBox="0 0 116 116" fill="none" xmlns="http://www.w3.org/2000/svg">
<mask id="path-2-outside-1_6_284" maskUnits="userSpaceOnUse" x="25" y="34" width="64" height="47" fill="black">
<rect fill="white" x="25" y="34" width="64" height="47"/>
<path d="M54.7586 52.77V62.1686C54.7586 67.861 53.4987 72.0995 50.9789 74.8843C48.5005 77.6281 45.1339 79 40.8793 79C36.6246 79 33.2374 77.6281 30.7177 74.8843C28.2392 72.0995 27 67.861 27 62.1686V52.77C27 47.0776 28.2599 42.8595 30.7796 40.1157C33.2994 37.3719 36.6659 36 40.8793 36C45.0926 36 48.4592 37.3719 50.9789 40.1157C53.4987 42.8595 54.7586 47.0776 54.7586 52.77ZM50.6691 52.77C50.6691 47.9786 49.7604 44.5795 47.9428 42.5729C46.1666 40.5252 43.8121 39.5014 40.8793 39.5014C37.9878 39.5014 35.6332 40.5252 33.8157 42.5729C31.9982 44.5795 31.0894 47.9786 31.0894 52.77V62.1686C31.0894 66.919 31.9982 70.3386 33.8157 72.4271C35.6332 74.4748 37.9878 75.4986 40.8793 75.4986C43.8121 75.4986 46.1666 74.4748 47.9428 72.4271C49.7604 70.3386 50.6691 66.919 50.6691 62.1686V52.77Z"/>
<path d="M81.7867 78.3857L73.5458 65.6086L65.4909 78.3857H61.5254L71.625 62.7829L62.3309 48.47H66.5442L73.9796 59.9571L81.229 48.47H85.1945L75.9003 62.7829L86 78.3857H81.7867Z"/>
</mask>
<path d="M54.7586 52.77V62.1686C54.7586 67.861 53.4987 72.0995 50.9789 74.8843C48.5005 77.6281 45.1339 79 40.8793 79C36.6246 79 33.2374 77.6281 30.7177 74.8843C28.2392 72.0995 27 67.861 27 62.1686V52.77C27 47.0776 28.2599 42.8595 30.7796 40.1157C33.2994 37.3719 36.6659 36 40.8793 36C45.0926 36 48.4592 37.3719 50.9789 40.1157C53.4987 42.8595 54.7586 47.0776 54.7586 52.77ZM50.6691 52.77C50.6691 47.9786 49.7604 44.5795 47.9428 42.5729C46.1666 40.5252 43.8121 39.5014 40.8793 39.5014C37.9878 39.5014 35.6332 40.5252 33.8157 42.5729C31.9982 44.5795 31.0894 47.9786 31.0894 52.77V62.1686C31.0894 66.919 31.9982 70.3386 33.8157 72.4271C35.6332 74.4748 37.9878 75.4986 40.8793 75.4986C43.8121 75.4986 46.1666 74.4748 47.9428 72.4271C49.7604 70.3386 50.6691 66.919 50.6691 62.1686V52.77Z" stroke="#FA8802" stroke-width="3" mask="url(#path-2-outside-1_6_284)"/>
<path d="M81.7867 78.3857L73.5458 65.6086L65.4909 78.3857H61.5254L71.625 62.7829L62.3309 48.47H66.5442L73.9796 59.9571L81.229 48.47H85.1945L75.9003 62.7829L86 78.3857H81.7867Z" stroke="#FA8802" stroke-width="3" mask="url(#path-2-outside-1_6_284)"/>
</svg>
