<svg width="116" height="116" viewBox="0 0 116 116" fill="none" xmlns="http://www.w3.org/2000/svg">
<path d="M58 29V13" stroke="#FA8802" stroke-width="1.5"/>
<path d="M51 19L58 12L65 19" stroke="#FA8802" stroke-width="1.5"/>
<path d="M89 58L105 58" stroke="#FA8802" stroke-width="1.5"/>
<path d="M99 51L106 58L99 65" stroke="#FA8802" stroke-width="1.5"/>
<path d="M58 88L58 104" stroke="#FA8802" stroke-width="1.5"/>
<path d="M65 98L58 105L51 98" stroke="#FA8802" stroke-width="1.5"/>
<path d="M27 58L11 58" stroke="#FA8802" stroke-width="1.5"/>
<path d="M17 65L10 58L17 51" stroke="#FA8802" stroke-width="1.5"/>
<path d="M67.5914 78.2309L67.7594 78.75H68.305H72H73.0332L72.7131 77.7676L60.0046 38.7676L59.8359 38.25H59.2915H55.6525H55.1073L54.9391 38.7686L42.2866 77.7686L41.9682 78.75H43H46.471H47.0196L47.1858 78.2272L50.2107 68.7132H64.5123L67.5914 78.2309ZM53.8469 57.4113L53.8469 57.4113L53.8484 57.4066L57.332 46.3672L60.8157 57.4066L60.8156 57.4066L60.8172 57.4113L62.9079 63.8868H51.7562L53.8469 57.4113Z" stroke="#FA8802" stroke-width="1.5"/>
</svg>
