<svg width="116" height="116" viewBox="0 0 116 116" fill="none" xmlns="http://www.w3.org/2000/svg">
<mask id="path-2-inside-1_57_1130" fill="white">
<path d="M91.8862 51.1179C85.4019 53.842 85.4019 63.158 91.8862 65.8821C92.8063 66.2695 93.2434 67.3392 92.8607 68.2733L89.4626 76.5937C89.0815 77.527 88.0261 77.9704 87.106 77.5838C80.6216 74.859 74.1272 81.4462 76.8129 88.0233C77.194 88.9565 76.7569 90.0271 75.8368 90.4136L67.6336 93.8603C66.7134 94.2469 65.658 93.8035 65.2769 92.8703C62.5912 86.2932 53.4065 86.2932 50.7208 92.8703C50.3397 93.8035 49.2842 94.2469 48.3641 93.8603L40.1609 90.4136C39.2408 90.0271 38.8037 88.9565 39.1848 88.0233C41.8712 81.4462 35.3768 74.859 28.8925 77.583C27.9724 77.9696 26.9169 77.5262 26.5358 76.593L23.1377 68.2725C22.7566 67.3392 23.1937 66.2687 24.1138 65.8821C30.5981 63.158 30.5981 53.842 24.1138 51.1179C23.1937 50.7313 22.7566 49.6608 23.1377 48.7275L26.5358 40.407C26.9169 39.4738 27.9724 39.0304 28.8925 39.417C35.3768 42.141 41.8712 35.5538 39.1856 28.9767C38.8045 28.0435 39.2416 26.9729 40.1617 26.5864L48.3657 23.1397C49.2858 22.7531 50.3412 23.1965 50.7223 24.1297C53.408 30.7068 62.5928 30.7068 65.2784 24.1297C65.6596 23.1965 66.715 22.7531 67.6351 23.1397L75.8391 26.5872C76.7592 26.9737 77.1963 28.0442 76.8152 28.9775C74.1288 35.5538 80.6232 42.141 87.1075 39.417C88.0276 39.0304 89.0831 39.4738 89.4642 40.407L92.8623 48.7275C93.2434 49.6608 92.8063 50.7313 91.8862 51.1179Z"/>
</mask>
<path d="M91.8862 51.1179C85.4019 53.842 85.4019 63.158 91.8862 65.8821C92.8063 66.2695 93.2434 67.3392 92.8607 68.2733L89.4626 76.5937C89.0815 77.527 88.0261 77.9704 87.106 77.5838C80.6216 74.859 74.1272 81.4462 76.8129 88.0233C77.194 88.9565 76.7569 90.0271 75.8368 90.4136L67.6336 93.8603C66.7134 94.2469 65.658 93.8035 65.2769 92.8703C62.5912 86.2932 53.4065 86.2932 50.7208 92.8703C50.3397 93.8035 49.2842 94.2469 48.3641 93.8603L40.1609 90.4136C39.2408 90.0271 38.8037 88.9565 39.1848 88.0233C41.8712 81.4462 35.3768 74.859 28.8925 77.583C27.9724 77.9696 26.9169 77.5262 26.5358 76.593L23.1377 68.2725C22.7566 67.3392 23.1937 66.2687 24.1138 65.8821C30.5981 63.158 30.5981 53.842 24.1138 51.1179C23.1937 50.7313 22.7566 49.6608 23.1377 48.7275L26.5358 40.407C26.9169 39.4738 27.9724 39.0304 28.8925 39.417C35.3768 42.141 41.8712 35.5538 39.1856 28.9767C38.8045 28.0435 39.2416 26.9729 40.1617 26.5864L48.3657 23.1397C49.2858 22.7531 50.3412 23.1965 50.7223 24.1297C53.408 30.7068 62.5928 30.7068 65.2784 24.1297C65.6596 23.1965 66.715 22.7531 67.6351 23.1397L75.8391 26.5872C76.7592 26.9737 77.1963 28.0442 76.8152 28.9775C74.1288 35.5538 80.6232 42.141 87.1075 39.417C88.0276 39.0304 89.0831 39.4738 89.4642 40.407L92.8623 48.7275C93.2434 49.6608 92.8063 50.7313 91.8862 51.1179Z" stroke="#FA8802" stroke-width="3" mask="url(#path-2-inside-1_57_1130)"/>
<circle cx="58.5" cy="58.5" r="20.75" stroke="#FA8802" stroke-width="1.5"/>
<circle cx="58.5" cy="58.5" r="6.75" stroke="#FA8802" stroke-width="1.5"/>
</svg>
