<svg width="600" height="210" viewBox="0 0 600 210" fill="none" xmlns="http://www.w3.org/2000/svg">
<path fill-rule="evenodd" clip-rule="evenodd" d="M600 81.7297C587.472 81.7298 577.316 91.8941 577.316 104.432C577.316 116.971 587.472 127.135 600 127.135V81.7297Z" fill="#5C5C5C"/>
<path d="M589 134.75H590.5V133.726L589.546 133.353L589 134.75ZM589 73.2496L589.546 74.6469L590.5 74.2742V73.2496H589ZM9.5 22.9432C9.5 23.7716 10.1716 24.4432 11 24.4432C11.8284 24.4432 12.5 23.7716 12.5 22.9432H9.5ZM12.5 34.8068C12.5 33.9784 11.8284 33.3068 11 33.3068C10.1716 33.3068 9.5 33.9784 9.5 34.8068H12.5ZM9.5 44.6932C9.5 45.5216 10.1716 46.1932 11 46.1932C11.8284 46.1932 12.5 45.5216 12.5 44.6932H9.5ZM12.5 56.5568C12.5 55.7284 11.8284 55.0568 11 55.0568C10.1716 55.0568 9.5 55.7284 9.5 56.5568H12.5ZM9.5 66.4432C9.5 67.2716 10.1716 67.9432 11 67.9432C11.8284 67.9432 12.5 67.2716 12.5 66.4432H9.5ZM12.5 78.3068C12.5 77.4784 11.8284 76.8068 11 76.8068C10.1716 76.8068 9.5 77.4784 9.5 78.3068H12.5ZM9.5 88.1932C9.5 89.0216 10.1716 89.6932 11 89.6932C11.8284 89.6932 12.5 89.0216 12.5 88.1932H9.5ZM12.5 100.057C12.5 99.2284 11.8284 98.5568 11 98.5568C10.1716 98.5568 9.5 99.2284 9.5 100.057H12.5ZM9.5 109.943C9.5 110.772 10.1716 111.443 11 111.443C11.8284 111.443 12.5 110.772 12.5 109.943H9.5ZM12.5 121.807C12.5 120.978 11.8284 120.307 11 120.307C10.1716 120.307 9.5 120.978 9.5 121.807H12.5ZM9.5 131.693C9.5 132.522 10.1716 133.193 11 133.193C11.8284 133.193 12.5 132.522 12.5 131.693H9.5ZM12.5 143.557C12.5 142.728 11.8284 142.057 11 142.057C10.1716 142.057 9.5 142.728 9.5 143.557H12.5ZM9.5 153.443C9.5 154.272 10.1716 154.943 11 154.943C11.8284 154.943 12.5 154.272 12.5 153.443H9.5ZM12.5 165.307C12.5 164.478 11.8284 163.807 11 163.807C10.1716 163.807 9.5 164.478 9.5 165.307H12.5ZM9.5 175.193C9.5 176.022 10.1716 176.693 11 176.693C11.8284 176.693 12.5 176.022 12.5 175.193H9.5ZM12.5 187.057C12.5 186.228 11.8284 185.557 11 185.557C10.1716 185.557 9.5 186.228 9.5 187.057H12.5ZM21.9476 199.5C22.776 199.5 23.4476 198.828 23.4476 198C23.4476 197.172 22.776 196.5 21.9476 196.5V199.5ZM33.8217 196.5C32.9933 196.5 32.3217 197.172 32.3217 198C32.3217 198.828 32.9933 199.5 33.8217 199.5V196.5ZM43.7168 199.5C44.5452 199.5 45.2168 198.828 45.2168 198C45.2168 197.172 44.5452 196.5 43.7168 196.5V199.5ZM55.5909 196.5C54.7625 196.5 54.0909 197.172 54.0909 198C54.0909 198.828 54.7625 199.5 55.5909 199.5V196.5ZM65.486 199.5C66.3144 199.5 66.986 198.828 66.986 198C66.986 197.172 66.3144 196.5 65.486 196.5V199.5ZM77.3601 196.5C76.5317 196.5 75.8601 197.172 75.8601 198C75.8601 198.828 76.5317 199.5 77.3601 199.5V196.5ZM87.2553 199.5C88.0837 199.5 88.7553 198.828 88.7553 198C88.7553 197.172 88.0837 196.5 87.2553 196.5V199.5ZM99.1294 196.5C98.3009 196.5 97.6294 197.172 97.6294 198C97.6294 198.828 98.3009 199.5 99.1294 199.5V196.5ZM109.024 199.5C109.853 199.5 110.524 198.828 110.524 198C110.524 197.172 109.853 196.5 109.024 196.5V199.5ZM120.899 196.5C120.07 196.5 119.399 197.172 119.399 198C119.399 198.828 120.07 199.5 120.899 199.5V196.5ZM130.794 199.5C131.622 199.5 132.294 198.828 132.294 198C132.294 197.172 131.622 196.5 130.794 196.5V199.5ZM142.668 196.5C141.839 196.5 141.168 197.172 141.168 198C141.168 198.828 141.839 199.5 142.668 199.5V196.5ZM152.563 199.5C153.391 199.5 154.063 198.828 154.063 198C154.063 197.172 153.391 196.5 152.563 196.5V199.5ZM164.437 196.5C163.609 196.5 162.937 197.172 162.937 198C162.937 198.828 163.609 199.5 164.437 199.5V196.5ZM174.332 199.5C175.161 199.5 175.832 198.828 175.832 198C175.832 197.172 175.161 196.5 174.332 196.5V199.5ZM186.206 196.5C185.378 196.5 184.706 197.172 184.706 198C184.706 198.828 185.378 199.5 186.206 199.5V196.5ZM196.101 199.5C196.93 199.5 197.601 198.828 197.601 198C197.601 197.172 196.93 196.5 196.101 196.5V199.5ZM207.976 196.5C207.147 196.5 206.476 197.172 206.476 198C206.476 198.828 207.147 199.5 207.976 199.5V196.5ZM217.871 199.5C218.699 199.5 219.371 198.828 219.371 198C219.371 197.172 218.699 196.5 217.871 196.5V199.5ZM229.745 196.5C228.916 196.5 228.245 197.172 228.245 198C228.245 198.828 228.916 199.5 229.745 199.5V196.5ZM239.64 199.5C240.468 199.5 241.14 198.828 241.14 198C241.14 197.172 240.468 196.5 239.64 196.5V199.5ZM251.514 196.5C250.686 196.5 250.014 197.172 250.014 198C250.014 198.828 250.686 199.5 251.514 199.5V196.5ZM261.409 199.5C262.238 199.5 262.909 198.828 262.909 198C262.909 197.172 262.238 196.5 261.409 196.5V199.5ZM273.283 196.5C272.455 196.5 271.783 197.172 271.783 198C271.783 198.828 272.455 199.5 273.283 199.5V196.5ZM283.178 199.5C284.007 199.5 284.678 198.828 284.678 198C284.678 197.172 284.007 196.5 283.178 196.5V199.5ZM295.052 196.5C294.224 196.5 293.552 197.172 293.552 198C293.552 198.828 294.224 199.5 295.052 199.5V196.5ZM304.948 199.5C305.776 199.5 306.448 198.828 306.448 198C306.448 197.172 305.776 196.5 304.948 196.5V199.5ZM316.822 196.5C315.993 196.5 315.322 197.172 315.322 198C315.322 198.828 315.993 199.5 316.822 199.5V196.5ZM326.717 199.5C327.545 199.5 328.217 198.828 328.217 198C328.217 197.172 327.545 196.5 326.717 196.5V199.5ZM338.591 196.5C337.763 196.5 337.091 197.172 337.091 198C337.091 198.828 337.763 199.5 338.591 199.5V196.5ZM348.486 199.5C349.314 199.5 349.986 198.828 349.986 198C349.986 197.172 349.314 196.5 348.486 196.5V199.5ZM360.36 196.5C359.532 196.5 358.86 197.172 358.86 198C358.86 198.828 359.532 199.5 360.36 199.5V196.5ZM370.255 199.5C371.084 199.5 371.755 198.828 371.755 198C371.755 197.172 371.084 196.5 370.255 196.5V199.5ZM382.129 196.5C381.301 196.5 380.629 197.172 380.629 198C380.629 198.828 381.301 199.5 382.129 199.5V196.5ZM392.025 199.5C392.853 199.5 393.525 198.828 393.525 198C393.525 197.172 392.853 196.5 392.025 196.5V199.5ZM403.899 196.5C403.07 196.5 402.399 197.172 402.399 198C402.399 198.828 403.07 199.5 403.899 199.5V196.5ZM413.794 199.5C414.622 199.5 415.294 198.828 415.294 198C415.294 197.172 414.622 196.5 413.794 196.5V199.5ZM425.668 196.5C424.839 196.5 424.168 197.172 424.168 198C424.168 198.828 424.839 199.5 425.668 199.5V196.5ZM435.563 199.5C436.391 199.5 437.063 198.828 437.063 198C437.063 197.172 436.391 196.5 435.563 196.5V199.5ZM447.437 196.5C446.609 196.5 445.937 197.172 445.937 198C445.937 198.828 446.609 199.5 447.437 199.5V196.5ZM457.332 199.5C458.161 199.5 458.832 198.828 458.832 198C458.832 197.172 458.161 196.5 457.332 196.5V199.5ZM469.206 196.5C468.378 196.5 467.706 197.172 467.706 198C467.706 198.828 468.378 199.5 469.206 199.5V196.5ZM479.101 199.5C479.93 199.5 480.601 198.828 480.601 198C480.601 197.172 479.93 196.5 479.101 196.5V199.5ZM490.976 196.5C490.147 196.5 489.476 197.172 489.476 198C489.476 198.828 490.147 199.5 490.976 199.5V196.5ZM500.871 199.5C501.699 199.5 502.371 198.828 502.371 198C502.371 197.172 501.699 196.5 500.871 196.5V199.5ZM512.745 196.5C511.916 196.5 511.245 197.172 511.245 198C511.245 198.828 511.916 199.5 512.745 199.5V196.5ZM522.64 199.5C523.468 199.5 524.14 198.828 524.14 198C524.14 197.172 523.468 196.5 522.64 196.5V199.5ZM534.514 196.5C533.686 196.5 533.014 197.172 533.014 198C533.014 198.828 533.686 199.5 534.514 199.5V196.5ZM544.409 199.5C545.237 199.5 545.909 198.828 545.909 198C545.909 197.172 545.237 196.5 544.409 196.5V199.5ZM556.283 196.5C555.455 196.5 554.783 197.172 554.783 198C554.783 198.828 555.455 199.5 556.283 199.5V196.5ZM566.178 199.5C567.007 199.5 567.678 198.828 567.678 198C567.678 197.172 567.007 196.5 566.178 196.5V199.5ZM578.052 196.5C577.224 196.5 576.552 197.172 576.552 198C576.552 198.828 577.224 199.5 578.052 199.5V196.5ZM590.5 187.663C590.5 186.834 589.828 186.163 589 186.163C588.172 186.163 587.5 186.834 587.5 187.663H590.5ZM587.5 177.254C587.5 178.082 588.172 178.754 589 178.754C589.828 178.754 590.5 178.082 590.5 177.254H587.5ZM590.5 168.58C590.5 167.751 589.828 167.08 589 167.08C588.172 167.08 587.5 167.751 587.5 168.58H590.5ZM587.5 158.171C587.5 158.999 588.172 159.671 589 159.671C589.828 159.671 590.5 158.999 590.5 158.171H587.5ZM590.5 149.496C590.5 148.668 589.828 147.996 589 147.996C588.172 147.996 587.5 148.668 587.5 149.496H590.5ZM587.5 139.087C587.5 139.916 588.172 140.587 589 140.587C589.828 140.587 590.5 139.916 590.5 139.087H587.5ZM585.668 131.524C584.945 131.12 584.031 131.379 583.627 132.102C583.223 132.826 583.482 133.739 584.206 134.143L585.668 131.524ZM575.42 127.151C575.976 127.765 576.925 127.812 577.539 127.256C578.153 126.699 578.2 125.751 577.644 125.137L575.42 127.151ZM572.811 118.075C572.441 117.334 571.54 117.034 570.799 117.405C570.058 117.775 569.758 118.676 570.128 119.417L572.811 118.075ZM566.816 108.685C566.927 109.506 567.683 110.081 568.504 109.97C569.325 109.858 569.9 109.102 569.788 108.281L566.816 108.685ZM569.788 99.7185C569.9 98.8976 569.325 98.1418 568.504 98.0303C567.683 97.9188 566.927 98.4939 566.816 99.3147L569.788 99.7185ZM570.128 88.5828C569.758 89.3236 570.058 90.2247 570.799 90.5954C571.54 90.9661 572.441 90.666 572.811 89.9251L570.128 88.5828ZM577.644 82.8632C578.2 82.2491 578.153 81.3006 577.539 80.7445C576.925 80.1884 575.976 80.2354 575.42 80.8495L577.644 82.8632ZM584.206 73.8568C583.482 74.2607 583.223 75.1744 583.627 75.8977C584.031 76.6211 584.945 76.8801 585.668 76.4762L584.206 73.8568ZM590.5 69.0641C590.5 68.2356 589.828 67.5641 589 67.5641C588.172 67.5641 587.5 68.2356 587.5 69.0641H590.5ZM587.5 59.0187C587.5 59.8471 588.172 60.5187 589 60.5187C589.828 60.5187 590.5 59.8471 590.5 59.0187H587.5ZM590.5 50.6475C590.5 49.8191 589.828 49.1475 589 49.1475C588.172 49.1475 587.5 49.8191 587.5 50.6475H590.5ZM587.5 40.6021C587.5 41.4306 588.172 42.1021 589 42.1021C589.828 42.1021 590.5 41.4306 590.5 40.6021H587.5ZM590.5 32.231C590.5 31.4025 589.828 30.731 589 30.731C588.172 30.731 587.5 31.4025 587.5 32.231H590.5ZM587.5 22.1856C587.5 23.014 588.172 23.6856 589 23.6856C589.828 23.6856 590.5 23.014 590.5 22.1856H587.5ZM578.052 10.5C577.224 10.5 576.552 11.1716 576.552 12C576.552 12.8284 577.224 13.5 578.052 13.5V10.5ZM566.178 13.5C567.007 13.5 567.678 12.8284 567.678 12C567.678 11.1716 567.007 10.5 566.178 10.5V13.5ZM556.283 10.5C555.455 10.5 554.783 11.1716 554.783 12C554.783 12.8284 555.455 13.5 556.283 13.5V10.5ZM544.409 13.5C545.238 13.5 545.909 12.8284 545.909 12C545.909 11.1716 545.238 10.5 544.409 10.5V13.5ZM534.514 10.5C533.686 10.5 533.014 11.1716 533.014 12C533.014 12.8284 533.686 13.5 534.514 13.5V10.5ZM522.64 13.5C523.468 13.5 524.14 12.8284 524.14 12C524.14 11.1716 523.468 10.5 522.64 10.5V13.5ZM512.745 10.5C511.916 10.5 511.245 11.1716 511.245 12C511.245 12.8284 511.916 13.5 512.745 13.5V10.5ZM500.871 13.5C501.699 13.5 502.371 12.8284 502.371 12C502.371 11.1716 501.699 10.5 500.871 10.5V13.5ZM490.976 10.5C490.147 10.5 489.476 11.1716 489.476 12C489.476 12.8284 490.147 13.5 490.976 13.5V10.5ZM479.101 13.5C479.93 13.5 480.601 12.8284 480.601 12C480.601 11.1716 479.93 10.5 479.101 10.5V13.5ZM469.206 10.5C468.378 10.5 467.706 11.1716 467.706 12C467.706 12.8284 468.378 13.5 469.206 13.5V10.5ZM457.332 13.5C458.161 13.5 458.832 12.8284 458.832 12C458.832 11.1716 458.161 10.5 457.332 10.5V13.5ZM447.437 10.5C446.609 10.5 445.937 11.1716 445.937 12C445.937 12.8284 446.609 13.5 447.437 13.5V10.5ZM435.563 13.5C436.391 13.5 437.063 12.8284 437.063 12C437.063 11.1716 436.391 10.5 435.563 10.5V13.5ZM425.668 10.5C424.839 10.5 424.168 11.1716 424.168 12C424.168 12.8284 424.839 13.5 425.668 13.5V10.5ZM413.794 13.5C414.622 13.5 415.294 12.8284 415.294 12C415.294 11.1716 414.622 10.5 413.794 10.5V13.5ZM403.899 10.5C403.07 10.5 402.399 11.1716 402.399 12C402.399 12.8284 403.07 13.5 403.899 13.5V10.5ZM392.024 13.5C392.853 13.5 393.524 12.8284 393.524 12C393.524 11.1716 392.853 10.5 392.024 10.5V13.5ZM382.129 10.5C381.301 10.5 380.629 11.1716 380.629 12C380.629 12.8284 381.301 13.5 382.129 13.5V10.5ZM370.255 13.5C371.084 13.5 371.755 12.8284 371.755 12C371.755 11.1716 371.084 10.5 370.255 10.5V13.5ZM360.36 10.5C359.532 10.5 358.86 11.1716 358.86 12C358.86 12.8284 359.532 13.5 360.36 13.5V10.5ZM348.486 13.5C349.314 13.5 349.986 12.8284 349.986 12C349.986 11.1716 349.314 10.5 348.486 10.5V13.5ZM338.591 10.5C337.762 10.5 337.091 11.1716 337.091 12C337.091 12.8284 337.762 13.5 338.591 13.5V10.5ZM326.717 13.5C327.545 13.5 328.217 12.8284 328.217 12C328.217 11.1716 327.545 10.5 326.717 10.5V13.5ZM316.822 10.5C315.993 10.5 315.322 11.1716 315.322 12C315.322 12.8284 315.993 13.5 316.822 13.5V10.5ZM304.948 13.5C305.776 13.5 306.448 12.8284 306.448 12C306.448 11.1716 305.776 10.5 304.948 10.5V13.5ZM295.052 10.5C294.224 10.5 293.552 11.1716 293.552 12C293.552 12.8284 294.224 13.5 295.052 13.5V10.5ZM283.178 13.5C284.007 13.5 284.678 12.8284 284.678 12C284.678 11.1716 284.007 10.5 283.178 10.5V13.5ZM273.283 10.5C272.455 10.5 271.783 11.1716 271.783 12C271.783 12.8284 272.455 13.5 273.283 13.5V10.5ZM261.409 13.5C262.237 13.5 262.909 12.8284 262.909 12C262.909 11.1716 262.237 10.5 261.409 10.5V13.5ZM251.514 10.5C250.686 10.5 250.014 11.1716 250.014 12C250.014 12.8284 250.686 13.5 251.514 13.5V10.5ZM239.64 13.5C240.468 13.5 241.14 12.8284 241.14 12C241.14 11.1716 240.468 10.5 239.64 10.5V13.5ZM229.745 10.5C228.916 10.5 228.245 11.1716 228.245 12C228.245 12.8284 228.916 13.5 229.745 13.5V10.5ZM217.871 13.5C218.699 13.5 219.371 12.8284 219.371 12C219.371 11.1716 218.699 10.5 217.871 10.5V13.5ZM207.975 10.5C207.147 10.5 206.475 11.1716 206.475 12C206.475 12.8284 207.147 13.5 207.975 13.5V10.5ZM196.101 13.5C196.93 13.5 197.601 12.8284 197.601 12C197.601 11.1716 196.93 10.5 196.101 10.5V13.5ZM186.206 10.5C185.378 10.5 184.706 11.1716 184.706 12C184.706 12.8284 185.378 13.5 186.206 13.5V10.5ZM174.332 13.5C175.161 13.5 175.832 12.8284 175.832 12C175.832 11.1716 175.161 10.5 174.332 10.5V13.5ZM164.437 10.5C163.609 10.5 162.937 11.1716 162.937 12C162.937 12.8284 163.609 13.5 164.437 13.5V10.5ZM152.563 13.5C153.391 13.5 154.063 12.8284 154.063 12C154.063 11.1716 153.391 10.5 152.563 10.5V13.5ZM142.668 10.5C141.839 10.5 141.168 11.1716 141.168 12C141.168 12.8284 141.839 13.5 142.668 13.5V10.5ZM130.794 13.5C131.622 13.5 132.294 12.8284 132.294 12C132.294 11.1716 131.622 10.5 130.794 10.5V13.5ZM120.899 10.5C120.07 10.5 119.399 11.1716 119.399 12C119.399 12.8284 120.07 13.5 120.899 13.5V10.5ZM109.024 13.5C109.853 13.5 110.524 12.8284 110.524 12C110.524 11.1716 109.853 10.5 109.024 10.5V13.5ZM99.1294 10.5C98.3009 10.5 97.6294 11.1716 97.6294 12C97.6294 12.8284 98.3009 13.5 99.1294 13.5V10.5ZM87.2553 13.5C88.0837 13.5 88.7553 12.8284 88.7553 12C88.7553 11.1716 88.0837 10.5 87.2553 10.5V13.5ZM77.3602 10.5C76.5317 10.5 75.8602 11.1716 75.8602 12C75.8602 12.8284 76.5317 13.5 77.3602 13.5V10.5ZM65.486 13.5C66.3144 13.5 66.986 12.8284 66.986 12C66.986 11.1716 66.3144 10.5 65.486 10.5V13.5ZM55.5909 10.5C54.7625 10.5 54.0909 11.1716 54.0909 12C54.0909 12.8284 54.7625 13.5 55.5909 13.5V10.5ZM43.7168 13.5C44.5452 13.5 45.2168 12.8284 45.2168 12C45.2168 11.1716 44.5452 10.5 43.7168 10.5V13.5ZM33.8217 10.5C32.9933 10.5 32.3217 11.1716 32.3217 12C32.3217 12.8284 32.9933 13.5 33.8217 13.5V10.5ZM21.9476 13.5C22.776 13.5 23.4476 12.8284 23.4476 12C23.4476 11.1716 22.776 10.5 21.9476 10.5V13.5ZM9.5 18V22.9432H12.5V18H9.5ZM9.5 34.8068V44.6932H12.5V34.8068H9.5ZM9.5 56.5568V66.4432H12.5V56.5568H9.5ZM9.5 78.3068V88.1932H12.5V78.3068H9.5ZM9.5 100.057V109.943H12.5V100.057H9.5ZM9.5 121.807V131.693H12.5V121.807H9.5ZM9.5 143.557V153.443H12.5V143.557H9.5ZM9.5 165.307V175.193H12.5V165.307H9.5ZM9.5 187.057V192H12.5V187.057H9.5ZM9.5 192C9.5 196.142 12.8579 199.5 17 199.5V196.5C14.5147 196.5 12.5 194.485 12.5 192H9.5ZM17 199.5H21.9476V196.5H17V199.5ZM33.8217 199.5H43.7168V196.5H33.8217V199.5ZM55.5909 199.5H65.486V196.5H55.5909V199.5ZM77.3601 199.5H87.2553V196.5H77.3601V199.5ZM99.1294 199.5H109.024V196.5H99.1294V199.5ZM120.899 199.5H130.794V196.5H120.899V199.5ZM142.668 199.5H152.563V196.5H142.668V199.5ZM164.437 199.5H174.332V196.5H164.437V199.5ZM186.206 199.5H196.101V196.5H186.206V199.5ZM207.976 199.5H217.871V196.5H207.976V199.5ZM229.745 199.5H239.64V196.5H229.745V199.5ZM251.514 199.5H261.409V196.5H251.514V199.5ZM273.283 199.5H283.178V196.5H273.283V199.5ZM295.052 199.5H304.948V196.5H295.052V199.5ZM316.822 199.5H326.717V196.5H316.822V199.5ZM338.591 199.5H348.486V196.5H338.591V199.5ZM360.36 199.5H370.255V196.5H360.36V199.5ZM382.129 199.5H392.025V196.5H382.129V199.5ZM403.899 199.5H413.794V196.5H403.899V199.5ZM425.668 199.5H435.563V196.5H425.668V199.5ZM447.437 199.5H457.332V196.5H447.437V199.5ZM469.206 199.5H479.101V196.5H469.206V199.5ZM490.976 199.5H500.871V196.5H490.976V199.5ZM512.745 199.5H522.64V196.5H512.745V199.5ZM534.514 199.5H544.409V196.5H534.514V199.5ZM556.283 199.5H566.178V196.5H556.283V199.5ZM578.052 199.5H583V196.5H578.052V199.5ZM583 199.5C587.142 199.5 590.5 196.142 590.5 192H587.5C587.5 194.485 585.485 196.5 583 196.5V199.5ZM590.5 192V187.663H587.5V192H590.5ZM590.5 177.254V168.58H587.5V177.254H590.5ZM590.5 158.171V149.496H587.5V158.171H590.5ZM590.5 139.087V134.75H587.5V139.087H590.5ZM589.546 133.353C588.206 132.83 586.911 132.218 585.668 131.524L584.206 134.143C585.568 134.904 586.986 135.574 588.454 136.148L589.546 133.353ZM577.644 125.137C575.73 123.023 574.099 120.649 572.811 118.075L570.128 119.417C571.54 122.238 573.325 124.837 575.42 127.151L577.644 125.137ZM569.788 108.281C569.598 106.882 569.5 105.453 569.5 104H566.5C566.5 105.588 566.607 107.152 566.816 108.685L569.788 108.281ZM569.5 104C569.5 102.547 569.598 101.118 569.788 99.7185L566.816 99.3147C566.607 100.848 566.5 102.412 566.5 104H569.5ZM572.811 89.9251C574.099 87.3507 575.73 84.9768 577.644 82.8632L575.42 80.8495C573.325 83.1629 571.54 85.7623 570.128 88.5828L572.811 89.9251ZM585.668 76.4762C586.911 75.7821 588.206 75.1699 589.546 74.6469L588.454 71.8524C586.986 72.4257 585.568 73.0965 584.206 73.8568L585.668 76.4762ZM590.5 73.2496V69.0641H587.5V73.2496H590.5ZM590.5 59.0187V50.6475H587.5V59.0187H590.5ZM590.5 40.6021V32.231H587.5V40.6021H590.5ZM590.5 22.1856V18H587.5V22.1856H590.5ZM590.5 18C590.5 13.8579 587.142 10.5 583 10.5V13.5C585.485 13.5 587.5 15.5147 587.5 18H590.5ZM583 10.5H578.052V13.5H583V10.5ZM566.178 10.5H556.283V13.5H566.178V10.5ZM544.409 10.5H534.514V13.5H544.409V10.5ZM522.64 10.5H512.745V13.5H522.64V10.5ZM500.871 10.5H490.976V13.5H500.871V10.5ZM479.101 10.5H469.206V13.5H479.101V10.5ZM457.332 10.5H447.437V13.5H457.332V10.5ZM435.563 10.5H425.668V13.5H435.563V10.5ZM413.794 10.5H403.899V13.5H413.794V10.5ZM392.024 10.5H382.129V13.5H392.024V10.5ZM370.255 10.5H360.36V13.5H370.255V10.5ZM348.486 10.5H338.591V13.5H348.486V10.5ZM326.717 10.5H316.822V13.5H326.717V10.5ZM304.948 10.5H295.052V13.5H304.948V10.5ZM283.178 10.5H273.283V13.5H283.178V10.5ZM261.409 10.5H251.514V13.5H261.409V10.5ZM239.64 10.5H229.745V13.5H239.64V10.5ZM217.871 10.5H207.975V13.5H217.871V10.5ZM196.101 10.5H186.206V13.5H196.101V10.5ZM174.332 10.5H164.437V13.5H174.332V10.5ZM152.563 10.5H142.668V13.5H152.563V10.5ZM130.794 10.5H120.899V13.5H130.794V10.5ZM109.024 10.5H99.1294V13.5H109.024V10.5ZM87.2553 10.5H77.3602V13.5H87.2553V10.5ZM65.486 10.5H55.5909V13.5H65.486V10.5ZM43.7168 10.5H33.8217V13.5H43.7168V10.5ZM21.9476 10.5H17V13.5H21.9476V10.5ZM17 10.5C12.8579 10.5 9.5 13.8579 9.5 18H12.5C12.5 15.5147 14.5147 13.5 17 13.5V10.5Z" fill="#676767"/>
</svg>
